<?xml version="1.0" encoding="utf-8"?>
<!-- Uploaded to: SVG Repo, www.svgrepo.com, Generator: SVG Repo Mixer Tools -->
<svg width="800px" height="800px" viewBox="0 0 1024 1024" class="icon"  version="1.1" xmlns="http://www.w3.org/2000/svg"><path d="M915.953477 236.26461a33.013135 33.013135 0 0 0-23.414209-9.703361H130.820804c-8.474699 0-16.949398 3.235478-23.418305 9.703361-6.467884 6.467884-9.70029 14.939511-9.70029 23.41421V760.46318c0 8.474699 3.232406 16.946326 9.70029 23.41421s14.942582 9.703361 23.418305 9.703361h761.718464c8.471627 0 16.946326-3.235478 23.414209-9.703361s9.703361-14.939511 9.703361-23.41421V259.679844c0-8.475723-3.235478-16.94735-9.703361-23.415234z" fill="#27323A" /><path d="M833.933095 276.238117L510.189771 555.348233 189.035852 276.238117z" fill="#79CCBF" /><path d="M147.380101 305.863215L318.339258 454.444334 147.380101 691.768666z" fill="#FFFFFF" /><path d="M171.05233 743.903883l184.994577-256.732078L477.59131 592.801958c9.44227 8.213608 21.536404 12.806758 34.151695 12.806758a51.857744 51.857744 0 0 0 34.088214-12.806758l121.60686-105.630153 184.865567 256.732078H171.05233z" fill="#F4CE73" /><path d="M875.97997 691.768666L705.083271 454.444334l170.896699-148.581119z" fill="#FFFFFF" /></svg>